# xmcd
#
# Track frame offsets: 
#        150
#        13372
#        30522
#        43430
#        56022
#        71155
#        86577
#        105537
#        123625
#        139365
#        156430
#        172320
#        189510
#        207690
#        222772
#        241337
#        258712
#
# Disc length: 3704 seconds
#
# Revision: 2
# Processed by: cddbd v1.5.2PL0 Copyright (c) Steve Scherf et al.
# Submitted via: ExactAudioCopy v0.99pb4
#
DISCID=150e7611
DTITLE=Various Artist - Hott Country 37
DYEAR=1999
DGENRE=
TTITLE0=Patty Loveless - Can't Get Enough
TTITLE1=Faith Hill - Love Ain't Like That
TTITLE2=Monte Warden - Someday
TTITLE3=Deana Carter - You Still Shake Me
TTITLE4=Aaron Tippin - I'm Leaving
TTITLE5=Claudia Church - What's the Matter With You Baby
TTITLE6=Warren Brothers - Better Man
TTITLE7=Mark Wills - Wish You Were Here
TTITLE8=George Strait - Meanwhile
TTITLE9=Alan Jackson - Gone Crazy
TTITLE10=Lila McCann - With You
TTITLE11=Terri Clark - Everytime I Cry
TTITLE12=Karen Staley - Somebody's Child
TTITLE13=Jessica Andrews - I Will Be There For You
TTITLE14=Brooks and Dunn - I Can't Get Over You
TTITLE15=Allison Moorer - Alabama Song
TTITLE16=Bruce Guthro - Two Story House
EXTD=
EXTT0=
EXTT1=
EXTT2=
EXTT3=
EXTT4=
EXTT5=
EXTT6=
EXTT7=
EXTT8=
EXTT9=
EXTT10=
EXTT11=
EXTT12=
EXTT13=
EXTT14=
EXTT15=
EXTT16=
PLAYORDER=
